<svg id="color" height="512" viewBox="0 0 24 24" width="512" xmlns="http://www.w3.org/2000/svg"><path d="m12 24c-.231 0-.449-.106-.591-.289-.303-.387-7.409-9.566-7.409-15.624 0-4.459 3.589-8.087 8-8.087s8 3.628 8 8.087c0 6.058-7.106 15.237-7.409 15.625-.142.182-.36.288-.591.288z" fill="#cfd8dc"/><path d="m12 0c-4.411 0-8 3.628-8 8.087 0 6.058 7.106 15.237 7.409 15.625.142.182.36.288.591.288z" fill="#b4bcc0"/><path d="m12.806 11.993c-1.137 0-2.364-.501-3.331-1.468-1.707-1.707-1.963-4.228-.57-5.621s3.915-1.136 5.621.57c1.707 1.707 1.963 4.228.57 5.621-.604.604-1.421.898-2.29.898z" fill="#00bcd4"/><path d="m15.57 10.48c-.13.22-.28.43-.47.62-.25.25-.54.44-.86.59l-.08-.63c-.06-.48-.39-1.24-1-1.85-.4-.4-.73-.42-1.22-.46-.61-.05-1.37-.12-2.16-.9-.65-.66-1.15-1.52-1.35-2.32.12-.23.28-.44.47-.63.25-.25.54-.44.85-.59l.08.63c.07.48.41 1.24 1.01 1.85.4.4.73.42 1.22.46.61.05 1.37.12 2.16.9.66.66 1.15 1.52 1.35 2.33z" fill="#4dd0e1"/><path d="m8.461 5.472c-.863 1.439-.481 3.559 1.014 5.053.967.967 2.194 1.468 3.331 1.468.618 0 1.21-.149 1.717-.451-.091.053-.185.103-.282.148l-.08-.63c-.06-.48-.391-1.24-1-1.85-.4-.4-.73-.42-1.22-.46-.61-.05-1.37-.12-2.16-.9-.651-.66-1.151-1.52-1.351-2.32.01-.019.02-.039.031-.058z" fill="#00a4b9"/><path d="m8.9 4.9c-.174.174-.323.365-.439.572-.011.019-.021.039-.031.058.2.8.7 1.66 1.351 2.32.79.78 1.55.85 2.16.9.489.04.819.06 1.22.46.609.61.939 1.37 1 1.85l.08.63c.097-.045.191-.095.282-.148.209-.123.403-.268.577-.442z" fill="#43b5c4"/></svg>