<svg width="1148" height="336" viewBox="0 0 1148 336" fill="none" xmlns="http://www.w3.org/2000/svg">
<g filter="url(#filter0_d)">
<circle cx="151" cy="92" r="50" fill="#00CAF7"/>
</g>
<g filter="url(#filter1_d)">
<circle cx="66" cy="230" r="50" fill="#00327C"/>
</g>
<g filter="url(#filter2_d)">
<circle cx="236" cy="230" r="50" fill="#FFC700"/>
</g>
<path d="M423.68 99.96V153.24H498.272V184.92H423.68V267H385.664V66.552H517.28V99.96H423.68Z" fill="black"/>
<path d="M626.872 270.456C616.12 270.456 604.696 269.016 592.6 266.136C580.504 263.256 569.08 259.32 558.328 254.328V217.464C583.288 230.904 605.56 237.624 625.144 237.624C634.936 237.624 642.808 235.512 648.76 231.288C654.904 227.064 657.976 221.112 657.976 213.432C657.976 208.056 656.248 203.544 652.792 199.896C649.528 196.056 645.4 192.984 640.408 190.68C635.416 188.184 628.312 185.208 619.096 181.752C606.616 177.144 596.44 172.728 588.568 168.504C580.696 164.28 573.976 158.328 568.408 150.648C562.84 142.776 560.056 132.696 560.056 120.408C560.056 102.36 566.296 88.344 578.776 78.36C591.256 68.184 608.344 63.096 630.04 63.096C640.216 63.096 650.2 64.248 659.992 66.552C669.784 68.664 678.808 71.832 687.064 76.056V112.056C667.672 101.304 648.952 95.928 630.904 95.928C620.92 95.928 613.048 97.752 607.288 101.4C601.72 104.856 598.936 109.848 598.936 116.376C598.936 122.904 601.816 128.088 607.576 131.928C613.528 135.576 622.648 139.608 634.936 144.024C647.8 148.824 658.36 153.432 666.616 157.848C674.872 162.264 681.976 168.696 687.928 177.144C694.072 185.4 697.336 196.152 697.72 209.4C697.72 228.408 691.288 243.384 678.424 254.328C665.56 265.08 648.376 270.456 626.872 270.456Z" fill="black"/>
<path d="M847.448 270.456C825.368 270.456 806.36 266.232 790.424 257.784C774.68 249.336 762.584 237.336 754.136 221.784C745.88 206.04 741.752 187.704 741.752 166.776C741.752 145.848 745.976 127.608 754.424 112.056C762.872 96.312 775.16 84.216 791.288 75.768C807.416 67.32 826.712 63.096 849.176 63.096C858.584 63.096 867.8 64.056 876.824 65.976C886.04 67.704 894.296 70.392 901.592 74.04V109.176H900.44C893.144 104.952 885.176 101.784 876.536 99.672C868.088 97.56 860.024 96.504 852.344 96.504C830.456 96.504 813.176 102.552 800.504 114.648C788.024 126.744 781.784 144.12 781.784 166.776C781.784 189.24 787.928 206.52 800.216 218.616C812.504 230.712 829.304 236.76 850.616 236.76C858.872 236.76 867.224 235.512 875.672 233.016C884.312 230.328 892.568 226.584 900.44 221.784H901.592V257.208C886.232 266.04 868.184 270.456 847.448 270.456ZM1018.44 270.456C1003.27 270.456 989.929 267.288 978.409 260.952C966.889 254.424 957.961 245.208 951.625 233.304C945.481 221.4 942.409 207.576 942.409 191.832C942.409 176.088 945.481 162.264 951.625 150.36C957.961 138.456 966.889 129.336 978.409 123C989.929 116.472 1003.27 113.208 1018.44 113.208C1033.61 113.208 1046.95 116.472 1058.47 123C1069.99 129.336 1078.83 138.456 1084.97 150.36C1091.31 162.264 1094.47 176.088 1094.47 191.832C1094.47 207.576 1091.31 221.4 1084.97 233.304C1078.83 245.208 1069.99 254.424 1058.47 260.952C1046.95 267.288 1033.61 270.456 1018.44 270.456ZM1018.44 239.064C1029.77 239.064 1038.6 235.032 1044.94 226.968C1051.27 218.712 1054.44 207 1054.44 191.832C1054.44 176.472 1051.27 164.76 1044.94 156.696C1038.6 148.632 1029.77 144.6 1018.44 144.6C1007.11 144.6 998.281 148.632 991.945 156.696C985.609 164.76 982.441 176.472 982.441 191.832C982.441 207 985.609 218.712 991.945 226.968C998.281 235.032 1007.11 239.064 1018.44 239.064Z" fill="black"/>
<defs>
<filter id="filter0_d" x="85" y="30" width="132" height="132" filterUnits="userSpaceOnUse" color-interpolation-filters="sRGB">
<feFlood flood-opacity="0" result="BackgroundImageFix"/>
<feColorMatrix in="SourceAlpha" type="matrix" values="0 0 0 0 0 0 0 0 0 0 0 0 0 0 0 0 0 0 127 0"/>
<feOffset dy="4"/>
<feGaussianBlur stdDeviation="8"/>
<feColorMatrix type="matrix" values="0 0 0 0 0 0 0 0 0 0 0 0 0 0 0 0 0 0 0.15 0"/>
<feBlend mode="normal" in2="BackgroundImageFix" result="effect1_dropShadow"/>
<feBlend mode="normal" in="SourceGraphic" in2="effect1_dropShadow" result="shape"/>
</filter>
<filter id="filter1_d" x="0" y="168" width="132" height="132" filterUnits="userSpaceOnUse" color-interpolation-filters="sRGB">
<feFlood flood-opacity="0" result="BackgroundImageFix"/>
<feColorMatrix in="SourceAlpha" type="matrix" values="0 0 0 0 0 0 0 0 0 0 0 0 0 0 0 0 0 0 127 0"/>
<feOffset dy="4"/>
<feGaussianBlur stdDeviation="8"/>
<feColorMatrix type="matrix" values="0 0 0 0 0 0 0 0 0 0 0 0 0 0 0 0 0 0 0.15 0"/>
<feBlend mode="normal" in2="BackgroundImageFix" result="effect1_dropShadow"/>
<feBlend mode="normal" in="SourceGraphic" in2="effect1_dropShadow" result="shape"/>
</filter>
<filter id="filter2_d" x="170" y="168" width="132" height="132" filterUnits="userSpaceOnUse" color-interpolation-filters="sRGB">
<feFlood flood-opacity="0" result="BackgroundImageFix"/>
<feColorMatrix in="SourceAlpha" type="matrix" values="0 0 0 0 0 0 0 0 0 0 0 0 0 0 0 0 0 0 127 0"/>
<feOffset dy="4"/>
<feGaussianBlur stdDeviation="8"/>
<feColorMatrix type="matrix" values="0 0 0 0 0 0 0 0 0 0 0 0 0 0 0 0 0 0 0.15 0"/>
<feBlend mode="normal" in2="BackgroundImageFix" result="effect1_dropShadow"/>
<feBlend mode="normal" in="SourceGraphic" in2="effect1_dropShadow" result="shape"/>
</filter>
</defs>
</svg>
